<svg id="Слой_1" data-name="Слой 1" xmlns="http://www.w3.org/2000/svg" viewBox="0 0 771.17 154.82"><defs><style>.cls-1{fill:#0075ce;}</style></defs><path class="cls-1" d="M740.57,64.33A64.1,64.1,0,0,0,640.15,50l-.45.44C635.76,10.65,609.5,4,589.78,6.07a58.7,58.7,0,0,0-33,15.42L558.08,46c6.33-7.08,17.11-12.71,27.2-13.95,8.62-1.07,19.71.16,25.19,8.2,4.61,6.76,6.65,17.92-1.91,31.47-9.38,14.85-25.71,25.45-54.89,37.42V140h77c-1.1-1.47-1.91-2.71-2.58-3.78-.19-.29-.38-.6-.58-.92A64.59,64.59,0,0,1,619.36,116H591.84c19.16-12,25.9-21.56,25.9-21.56,1-12.57,5.52-23.39,10.63-28.91a64.11,64.11,0,0,0,16.7,80.9l15.56-19.71c-.56-.44-1.11-.89-1.65-1.36A39.05,39.05,0,0,1,684.81,57a38.28,38.28,0,0,1,7.85.8l.14,0a39.17,39.17,0,0,1,29,25.78l23.81-8A62.29,62.29,0,0,0,740.57,64.33Z"/><path class="cls-1" d="M684.81,97.2q-4.81,0-7.29,2.73c-1.65,1.81-2.47,4.43-2.47,7.83v21.83c0,3.4.82,6,2.47,7.84s4.08,2.72,7.29,2.72,5.64-.91,7.29-2.72,2.47-4.44,2.47-7.84V124h-6.19v6a4.41,4.41,0,0,1-.92,3.18,3.87,3.87,0,0,1-4.94,0,4.36,4.36,0,0,1-.92-3.18V107.34a4.51,4.51,0,0,1,.92-3.22,3.78,3.78,0,0,1,4.94,0,4.55,4.55,0,0,1,.92,3.22v4.5h6.19v-4.08c0-3.4-.83-6-2.47-7.83S688,97.2,684.81,97.2"/><polygon class="cls-1" points="737.49 115.68 730.05 115.68 730.05 97.68 723.51 97.68 723.51 139.67 730.05 139.67 730.05 121.68 737.49 121.68 737.49 139.67 744.15 139.67 744.15 97.68 737.49 97.68 737.49 115.68"/><polygon class="cls-1" points="753.85 97.68 753.85 139.67 760.39 139.67 760.39 103.68 771.16 103.68 771.16 97.68 753.85 97.68"/><polygon class="cls-1" points="697.71 103.68 704.55 103.68 704.55 139.68 711.1 139.68 711.1 103.68 717.94 103.68 717.94 97.69 697.71 97.69 697.71 103.68"/><path class="cls-1" d="M11.87,75.39H2.49V15.71H27.3v8.52H11.87Z"/><path class="cls-1" d="M67,75.39H57.49L55.87,64.57H44.36L42.74,75.39H34.13l9.54-59.68H57.4ZM45.55,56.47h9L50.07,26.28Z"/><path class="cls-1" d="M95.77,30.37q0-4-1.32-5.41a4.62,4.62,0,0,0-3.54-1.41,4.78,4.78,0,0,0-3.54,1.32c-.88.89-1.32,2.41-1.32,4.57v6.39H77.18V30q0-7.25,3.54-11.13T91.17,15q6.9,0,10.44,3.87T105.15,30v1.54q0,9.56-6.56,12.27a9.52,9.52,0,0,1,5.07,4.74,18.43,18.43,0,0,1,1.49,7.8v4.69q0,7.25-3.54,11.13T91.17,76.07q-6.92,0-10.45-3.87T77.18,61.07v-7.5h8.87v8.1q0,3.24,1.32,4.56a4.78,4.78,0,0,0,3.54,1.32,4.73,4.73,0,0,0,3.54-1.36q1.32-1.36,1.32-5.38V56.12q0-4.17-1.45-5.88c-1-1.14-2.53-1.7-4.69-1.7H88.18V40h2a5.93,5.93,0,0,0,4.14-1.37c1-.91,1.49-2.55,1.49-4.94Z"/><path class="cls-1" d="M145.05,53.14v7.93q0,7.25-3.53,11.13t-10.45,3.87q-6.9,0-10.45-3.87t-3.53-11.13V30q0-7.25,3.53-11.13T131.07,15q6.9,0,10.45,3.87T145.05,30v5.8h-8.86V29.44c0-2.16-.44-3.68-1.32-4.57a5.41,5.41,0,0,0-7.08,0c-.88.89-1.32,2.41-1.32,4.57V61.67c0,2.16.44,3.66,1.32,4.52a5.57,5.57,0,0,0,7.08,0c.88-.86,1.32-2.36,1.32-4.52V53.14Z"/><path class="cls-1" d="M155.29,15.71h29v8.52h-9.81V75.39h-9.38V24.23h-9.8Z"/><path class="cls-1" d="M209.17,15.71q7.08,0,10.54,3.75t3.45,11v7.76q0,7.24-3.45,11T209.17,53h-4.43V75.39h-9.38V15.71Zm-4.43,8.52V44.44h4.43a4.62,4.62,0,0,0,3.41-1.19q1.2-1.2,1.2-4.44v-9c0-2.16-.4-3.63-1.2-4.43a4.59,4.59,0,0,0-3.41-1.2Z"/><path class="cls-1" d="M233.39,30q0-7.25,3.66-11.13T247.63,15q6.9,0,10.57,3.87T261.86,30v31q0,7.25-3.66,11.13t-10.57,3.87q-6.91,0-10.58-3.87t-3.66-11.13Zm9.38,31.64q0,3.24,1.32,4.56a5.41,5.41,0,0,0,7.08,0c.87-.88,1.32-2.4,1.32-4.56V29.44c0-2.16-.45-3.68-1.32-4.57a5.41,5.41,0,0,0-7.08,0c-.88.89-1.32,2.41-1.32,4.57Z"/><path class="cls-1" d="M284.29,75.39h-9.64V15.71H283V51.43l9.64-35.72h11.76V75.39H296V32.16ZM300,5.39v7H279.34v-7Z"/><path class="cls-1" d="M327.43,75.39h-9.38V15.71h29.59V75.39h-9.55V24.23H327.43Z"/><path class="cls-1" d="M375.09,15.71q7.08,0,10.53,3.75t3.46,11v7.76q0,7.24-3.46,11T375.09,53h-4.43V75.39h-9.38V15.71Zm-4.43,8.52V44.44h4.43a4.62,4.62,0,0,0,3.41-1.19q1.2-1.2,1.2-4.44v-9c0-2.16-.4-3.63-1.2-4.43a4.59,4.59,0,0,0-3.41-1.2Z"/><path class="cls-1" d="M399.31,30q0-7.25,3.66-11.13T413.54,15q6.91,0,10.58,3.87T427.78,30v31q0,7.25-3.66,11.13t-10.58,3.87q-6.9,0-10.57-3.87t-3.66-11.13Zm9.38,31.64q0,3.24,1.32,4.56a5.39,5.39,0,0,0,7.07,0q1.32-1.32,1.32-4.56V29.44c0-2.16-.44-3.68-1.32-4.57a5.39,5.39,0,0,0-7.07,0c-.88.89-1.32,2.41-1.32,4.57Z"/><path class="cls-1" d="M460.53,58.09l6.39-42.38h13V75.39H471.1V32.59l-6.48,42.8h-8.87l-7-42.2v42.2h-8.19V15.71h13.05Z"/><path class="cls-1" d="M19,125.55V131q0,4.94-2.41,7.57t-7.11,2.64q-4.69,0-7.1-2.64T0,131V109.83q0-4.93,2.41-7.57t7.1-2.64q4.71,0,7.11,2.64T19,109.83v4H13v-4.35a4.33,4.33,0,0,0-.9-3.11,3.27,3.27,0,0,0-2.41-.9,3.25,3.25,0,0,0-2.41.9,4.33,4.33,0,0,0-.9,3.11v21.93a4.19,4.19,0,0,0,.9,3.07,3.32,3.32,0,0,0,2.41.87,3.33,3.33,0,0,0,2.41-.87,4.19,4.19,0,0,0,.9-3.07v-5.81Z"/><path class="cls-1" d="M25.47,100.08H45.19v5.81H38.52V140.7H32.14V105.89H25.47Z"/><path class="cls-1" d="M61.61,100.08c3.21,0,5.6.86,7.17,2.56s2.35,4.19,2.35,7.48v5.28c0,3.29-.79,5.78-2.35,7.49s-4,2.55-7.17,2.55h-3V140.7H52.21V100.08Zm-3,5.81v13.75h3a3.1,3.1,0,0,0,2.32-.82,4.25,4.25,0,0,0,.82-3v-6.09a4.28,4.28,0,0,0-.82-3,3.13,3.13,0,0,0-2.32-.81Z"/><path class="cls-1" d="M77.57,109.83q0-4.93,2.49-7.57t7.2-2.64q4.69,0,7.19,2.64t2.49,7.57V131q0,4.94-2.49,7.57t-7.19,2.64q-4.71,0-7.2-2.64T77.57,131ZM84,131.36a4.3,4.3,0,0,0,.9,3.1,3.66,3.66,0,0,0,4.81,0,4.3,4.3,0,0,0,.9-3.1V109.43a4.33,4.33,0,0,0-.9-3.11,3.66,3.66,0,0,0-4.81,0,4.33,4.33,0,0,0-.9,3.11Z"/><path class="cls-1" d="M111.68,140.7h-6.56V100.08h5.69v24.31l6.56-24.31h8V140.7h-5.74V111.28Zm10.68-47.64v4.76h-14V93.06Z"/><path class="cls-1" d="M132.39,100.08h19.73v5.81h-6.67V140.7h-6.39V105.89h-6.67Z"/><path class="cls-1" d="M168.54,100.08c3.21,0,5.59.86,7.16,2.56s2.35,4.19,2.35,7.48v5.28c0,3.29-.78,5.78-2.35,7.49s-3.95,2.55-7.16,2.55h-3V140.7h-6.38V100.08Zm-3,5.81v13.75h3a3.13,3.13,0,0,0,2.32-.82,4.26,4.26,0,0,0,.81-3v-6.09a4.28,4.28,0,0,0-.81-3,3.17,3.17,0,0,0-2.32-.81Z"/><path class="cls-1" d="M205.67,140.7h-6.44l-1.11-7.37h-7.83l-1.1,7.37h-5.86l6.5-40.62h9.34ZM191.1,127.82h6.15l-3.07-20.54Z"/><path class="cls-1" d="M219.07,140.7h-6.38V100.08h6.38v17.41h7.25V100.08h6.5V140.7h-6.5V123.29h-7.25Z"/><path class="cls-1" d="M260,125.55V131c0,3.29-.81,5.81-2.41,7.57s-4,2.64-7.11,2.64-5.5-.88-7.1-2.64S241,134.24,241,131V109.83q0-4.93,2.41-7.57t7.1-2.64c3.14,0,5.5.88,7.11,2.64s2.41,4.28,2.41,7.57v4h-6v-4.35a4.33,4.33,0,0,0-.9-3.11,3.66,3.66,0,0,0-4.81,0,4.33,4.33,0,0,0-.9,3.11v21.93a4.19,4.19,0,0,0,.9,3.07,3.76,3.76,0,0,0,4.81,0,4.19,4.19,0,0,0,.9-3.07v-5.81Z"/><path class="cls-1" d="M274.59,140.7h-6.38V100.08h6.38v17.41h7.25V100.08h6.5V140.7h-6.5V123.29h-7.25Z"/><path class="cls-1" d="M303.48,117.2h8.76V123h-8.76v11.9h11v5.8H297.1V100.08h17.4v5.81h-11Z"/><path class="cls-1" d="M333.47,133.56h-3q-4.81,0-7.17-2.55c-1.56-1.7-2.35-4.2-2.35-7.49V112.44c0-3.29.79-5.78,2.35-7.48s4-2.55,7.17-2.55h3v-2.33h6.39v2.33h3q4.81,0,7.17,2.55c1.56,1.7,2.35,4.19,2.35,7.48v11.08c0,3.29-.79,5.79-2.35,7.49s-4,2.55-7.17,2.55h-3v7.14h-6.39Zm-3-25.35a3.13,3.13,0,0,0-2.32.81,4.23,4.23,0,0,0-.82,3v11.89a4.23,4.23,0,0,0,.82,3,3.13,3.13,0,0,0,2.32.81h3V108.21Zm9.4,0v19.55h3a3.13,3.13,0,0,0,2.32-.81,4.28,4.28,0,0,0,.82-3V112a4.28,4.28,0,0,0-.82-3,3.13,3.13,0,0,0-2.32-.81Z"/><path class="cls-1" d="M358,100.08h19.72v5.81H371V140.7h-6.38V105.89H358Z"/><path class="cls-1" d="M391.08,117.2h8.76V123h-8.76v11.9h11v5.8H384.7V100.08h17.41v5.81h-11Z"/><path class="cls-1" d="M416.38,140.7H410V100.08h16.88v5.81h-10.5Z"/><path class="cls-1" d="M454.5,140.7h-6.44L447,133.33h-7.83L438,140.7h-5.86l6.5-40.62H448Zm-14.57-12.88h6.15L443,107.28Z"/><path class="cls-1" d="M473.58,110.06c0-1.81-.3-3-.9-3.68a3.13,3.13,0,0,0-2.4-1,3.25,3.25,0,0,0-2.41.9,4.33,4.33,0,0,0-.9,3.11v4.35h-6v-4c0-3.29.81-5.81,2.41-7.57s4-2.64,7.11-2.64,5.5.88,7.11,2.64,2.4,4.28,2.4,7.57v1q0,6.5-4.46,8.35a6.46,6.46,0,0,1,3.45,3.22,12.45,12.45,0,0,1,1,5.31V131q0,4.94-2.4,7.57t-7.11,2.64q-4.69,0-7.11-2.64c-1.6-1.76-2.41-4.28-2.41-7.57v-5.11h6v5.52a4.3,4.3,0,0,0,.9,3.1,3.25,3.25,0,0,0,2.41.9,3.19,3.19,0,0,0,2.4-.93c.6-.62.9-1.84.9-3.65v-3.19a6.33,6.33,0,0,0-1-4,4,4,0,0,0-3.19-1.16h-1v-5.8h1.33a4,4,0,0,0,2.82-.93,4.48,4.48,0,0,0,1-3.36Z"/><rect class="cls-1" x="517.91" width="3.18" height="154.82"/></svg>